<svg xmlns="http://www.w3.org/2000/svg" viewBox="0 0 146.16 49.03" width="146.16" height="49.03">
  <path fill="#141414" d="M.66 24H.52a.65.65 0 0 1-.52-.65V.65A.65.65 0 0 1 .27.12.64.64 0 0 1 .86 0c5.59 2 9.07 6.57 9.07 12S6.46 22 .87 24a.64.64 0 0 1-.21 0zM1.3 1.59v20.82C5.91 20.49 8.63 16.65 8.63 12S5.91 3.52 1.3 1.59zM30.82 23.45a.61.61 0 0 0 0-.1V.65a.65.65 0 1 0-1.3 0v19.79l-1-2L20.11.38a.68.68 0 0 0-1.18 0l-8.46 18-2.2 4.68a.65.65 0 1 0 1.18.55l2-4.33h16.11l2 4.31a.64.64 0 0 0 .2.22h.06a.63.63 0 0 0 .31.09.64.64 0 0 0 .27-.06h.06a.64.64 0 0 0 .13-.1 2.28 2.28 0 0 0 .13-.21.64.64 0 0 0 .1-.08zM12.1 18l7.43-15.82L27 18zM39.15 24h-6.62a.65.65 0 0 1-.65-.65V.65a.65.65 0 1 1 1.3 0v22h6a.65.65 0 1 1 0 1.3zM51.95.12a.65.65 0 0 0-.95.15l-7 9.76L37.1.27A.65.65 0 1 0 36 1l7.38 10.33v12a.65.65 0 1 0 1.3 0v-12L52.1 1a.65.65 0 0 0-.15-.88zM78.42 25.15a11.89 11.89 0 0 0-11.08 7.65h-7.62v-6.47h6.52a.65.65 0 0 0 0-1.3h-7.17a.65.65 0 0 0-.65.65v21.24L44 33.87l8.63-7.7a.65.65 0 1 0-.87-1l-8.08 7.22v-6.71a.65.65 0 0 0-1.3 0v19.77L33 25.41a.65.65 0 0 0-.6-.41.65.65 0 0 0-.59.38l-8.21 18-1.13 2.25v-20a.65.65 0 0 0-1.12-.45L11.23 35.77 1.12 25.23a.65.65 0 0 0-1.12.45v22.7a.65.65 0 1 0 1.3 0V27.3l9.46 9.86a.65.65 0 0 0 .94 0l9.46-9.86v21.08a.61.61 0 0 0 0 .1.64.64 0 0 0 0 .13 1.53 1.53 0 0 0 .13.21l.11.09.07.06h.35L22 49l.13-.07.09-.06a.64.64 0 0 0 .09-.12l.05-.07 2.18-4.35h15.83l2 4.31a.64.64 0 0 0 .2.23h.06A.63.63 0 0 0 43 49a.64.64 0 0 0 .27-.06h.06a.64.64 0 0 0 .13-.1.63.63 0 0 0 .06-.09.63.63 0 0 0 .07-.12.65.65 0 0 0 0-.13.62.62 0 0 0 0-.1V35.33l15 13.54.1.06.1.06a.65.65 0 0 0 .24 0h7.17a.65.65 0 0 0 0-1.3h-6.48V34.1h7.21a11.87 11.87 0 1 0 11.5-8.95zM25.19 43l7.21-15.79L39.77 43zm53.23 4.59A10.58 10.58 0 1 1 89 37a10.59 10.59 0 0 1-10.58 10.61z"/>
  <path fill="#141414" d="M135.67 47.89L120 33.92a4.82 4.82 0 0 0 2.29-1.22 4.32 4.32 0 0 0 1.31-3.12c0-2.26-1.76-4.56-5.11-4.56a.65.65 0 0 0-.65.65v7.13h-8.34v-6.47h6.5a.65.65 0 0 0 0-1.3h-7.4l-.11.06-.1.07a.64.64 0 0 0-.1.13v.06l-10 21.4-7.66-16.65-2.36-4.71a.65.65 0 0 0-1.17.61l2.35 4.69 8.22 18a.65.65 0 0 0 .59.38.65.65 0 0 0 .59-.38l9.34-20v19.69a.65.65 0 0 0 .65.65H116a.65.65 0 0 0 0-1.3h-6.5V34.1h8.33v14.28a.65.65 0 0 0 1.3 0V34.9l15.67 14a.65.65 0 1 0 .87-1zm-16.54-21.52a3.28 3.28 0 0 1 3.16 3.22 3 3 0 0 1-.91 2.19 3.76 3.76 0 0 1-2.25 1z"/>
  <path fill="#fb4545" d="M128.73 32.53c1.56-1.63 1.46-5.44 3-6.21s3.45 1.71 4.42 1.21c1.56-.81.79-4.28 2.19-4.62s5.06 2.78 7.44 2.78c1.25 4.29-.25 10.6-4.81 12.66s-10.74-1.9-12.24-5.82z"/>
  <path fill="#fff" d="M129.9 32.78c4.36-.92 10.44-3.42 14.13-6.67-.21 5.75-5.55 12-14.13 6.67z"/>
</svg>
