<svg xmlns="http://www.w3.org/2000/svg" viewBox="0 0 390.79 77" width="390.79" height="77">
  <path fill="#aaa" d="M76.89 37.75l-4.67-8.24V20a1.59 1.59 0 0 0-.84-1.3l-8.28-4.76-4.78-8.35A1.65 1.65 0 0 0 57 4.73h-9.51L39.25.09a1.5 1.5 0 0 0-1.5-.09l-8.24 4.7H20a1.62 1.62 0 0 0-1.3.86l-4.76 8.3-8.1 4.81A1.44 1.44 0 0 0 5.22 20v9.51L.33 37.75a1.5 1.5 0 0 0 .07 1.5l4.82 8.24V57a1.39 1.39 0 0 0 .62 1.3L14 63.05l4.72 8.08a1.32 1.32 0 0 0 1.27.59h9.51l8.24 4.91a1.61 1.61 0 0 0 .75.28 1.68 1.68 0 0 0 .75-.32l8.24-4.87H57a1.37 1.37 0 0 0 1.3-.59L63.05 63l8.33-4.72a1.53 1.53 0 0 0 .84-1.28v-9.51l4.71-8.24a1.5 1.5 0 0 0-.04-1.5zm-7.67-16.88v3.45l-3-5.18zm0 9.45v16.36l-8.27 14-14.27 8H30.32l-14-8-8.05-14V30.32l8-14.32 14-8.3h16.41L60.95 16zM56.13 7.73l1.72 3-5.17-3zM38.5 3l3 1.72h-6zM20.87 7.73h3.45l-5.18 3zM8.22 20.87l3-1.73-3 5.18zM3.5 38.5l1.73-3v6zm4.72 17.63v-3.45l3 5.18zm12.65 12.6l-1.73-3 5.18 3zm17.63 4.72l-3-1.72h6zm17.63-4.72h-3.45l5.17-3zm13.09-12.6l-3 1.73 3-5.18zm3-14.65v-6l1.72 3z"/>
  <path fill="#717171" d="M10.95 19.14l5.19-3 3-5.19-5.19 2.99-3 5.2zM8.22 46.68l-3-5.19v6l3 5.19v-6zM5.22 35.51l3-5.19v-6l-3 5.19v6zM60.86 16.14l5.19 3-3-5.2-5.19-3 3 5.2zM24.32 7.73h6l5.19-3h-6l-5.19 3zM46.68 7.73h6l-5.19-3h-6l5.19 3zM52.68 68.73h-6l-5.19 3h6l5.19-3zM72.22 41.49l-3 5.19v6l3-5.19v-6zM16.14 60.86l-5.19-3 3 5.19 5.19 3-3-5.19zM69.22 30.32l3 5.19v-6l-3-5.19v6zM66.05 57.86l-5.19 3-3 5.2 5.19-3.01 3-5.19zM30.32 68.73h-6l5.19 3h6l-5.19-3z"/>
  <path d="M40.31 48.51h-3.62l-8.68-18.37h4.42l6.07 12.84 6.07-12.84h4.42l-8.68 18.37zM241.7 48.51h-3.62l-8.68-18.37h4.42l6.07 12.84 6.07-12.84h4.42l-8.68 18.37zM296.46 48.51h-3.62l-8.68-18.37h4.42l6.07 12.84 6.07-12.84h4.42l-8.68 18.37zM326.79 30.14h-3.61l-8.69 18.37h4.43l6.06-12.83 6.07 12.83h4.43l-8.69-18.37z"/>
  <path fill="#aaa" d="M125.25 30.14H113v4.01h4.12v14.36h4V34.15h4.13v-4.01z"/>
  <path d="M390.79 30.14h-12.25v4.01h4.13v14.36h4V34.15h4.12v-4.01zM359.1 48.51l-7.77-11.73v11.73h-4V30.14h4.4l7.77 11.73V30.14h4v18.37h-4.4zM264.58 30.15h4v18.37h-4z"/>
  <path fill="#aaa" d="M189.13 34.15v-4.01h-12.75v18.37h12.75v-4h-8.75V41h7.25v-4h-7.25v-2.85h8.75z"/>
  <path fill="#aaa" d="M155.5 30.14V37h-8.75v-6.86h-4v18.37h4V41h8.75v7.51h4V30.14h-4z"/>
  <path d="M319.24 41.2H330v4h-10.76z"/>
</svg>
