<svg xmlns="http://www.w3.org/2000/svg" viewBox="0 0 768 27.08" width="768" height="27.08">
  <path fill="#fff" d="M0 0h768v24.1c-3.09-.16-5.65-1.26-8.67-1.06-1.95.17-4 .4-5.86-.31a15.29 15.29 0 0 0-1.89-.6c-1.37.67-2.55 1.83-4.14 2-2.27.24-4.17-1.37-6.35-1.65-1.34.45-2.44 1.54-3.89 1.62a17.93 17.93 0 0 1-4.2-.1 23.07 23.07 0 0 1-3.21-1.89 25.69 25.69 0 0 0-5.28-1.8c-1-.32-1.9.17-2.85.26a6.78 6.78 0 0 1-1.83-.42c-2.42 1.66-3.88 4.59-6.72 5.66-1.57.35-3.12-.28-4.63-.59-2.42-.55-4.89 0-7.32-.26-1.18-.2-2.27-.74-3.46-.83-1.9-.14-3.81.1-5.71 0-1.46-.09-2.78-1-4.26-.86-.73.47-1.3 1.13-2 1.59-1.22-.21-2.43-.53-3.63-.83-.94-.25-1.71-.9-2.63-1.18a13 13 0 0 1-1.83 0c-.88-.2-1.62-.81-2.51-.93-.71.42-1.08 1.23-1.65 1.8a22.35 22.35 0 0 0-2.26-1.5c-.91.15-1.74.6-2.65.66-2.22.11-4.52.24-6.61-.63a15 15 0 0 1 .23 1.87 10.61 10.61 0 0 1-4-.38c-1.82-.63-3.84-.42-5.6-1.21a26 26 0 0 0-5.31-1.53c-2.09-.56-4.33-1.28-6.47-.57a24.17 24.17 0 0 0-4.67 2 4 4 0 0 1-3 .4 20.32 20.32 0 0 1-2-2.67c-1.89.36-3.13 1.9-4.54 3.05a8.1 8.1 0 0 1-4.92-1.57c-.69-.36-1.38-1-2.2-.83-1.59.21-3.18.28-4.76.48-1.21 1.11-1.9 2.81-3.45 3.55a16.27 16.27 0 0 1-2.25.08c-1.57.06-2.78 1.35-4.35 1.38-2.67.21-5.16-.93-7.74-1.35-2.42-.52-4.65-1.87-7.18-1.76s-5.29-.08-7.92 0c-1.21 0-2.22.73-3.33 1a13 13 0 0 1-5.31-.63c-1.14-.33-2.2.37-3.31.46a16.4 16.4 0 0 0-4.56.84c-3.67.77-7.45-.18-10.79-1.68-.44-.51-.39-1.36-.64-2a5.57 5.57 0 0 0-1.44-.83c-.86.1-1.64.56-2.49.67-.92-.23-1.6-1.08-2.57-1.16a11.22 11.22 0 0 0-3.06.51c-1.88.72-3.06 2.48-4.76 3.47a8.92 8.92 0 0 1-3.49.17c-2.11-.5-3.8-2-5.79-2.72a9.82 9.82 0 0 0-5.77.18 7.05 7.05 0 0 1-2.34.56c-1.75-.26-3.05-1.72-4.82-1.88-1.94-.13-3.76.69-5.66.93a34.13 34.13 0 0 0-7.25 1.6 4.39 4.39 0 0 1-3 .38 54.54 54.54 0 0 0-7.15-2c-1.17.2-1.92 1.24-3 1.73l-.65-1.44c-.76-.22-1.56-.3-2.31-.5s-1.43-1.13-2.28-1.44a8.17 8.17 0 0 0-5.3 1.35c.63 1.31 2.4 1.33 3.17 2.51a6.25 6.25 0 0 1 0 1.51c-1.26.17-2.5-.28-3.76-.27-1.26-.23-2.13 1.23-3.38.95-2-.25-4-.12-5.94-.3-2.05-.35-3.91-1.42-5.94-1.81a12.44 12.44 0 0 1-2.88.43c-2 0-4 .42-6 .26-1.93-.58-3.58-2-5.66-2.09-1.57-.17-2.76 1.21-4.3 1.22a45.46 45.46 0 0 1-5.1-.21c.26.68.57 1.34.86 2-.95-.42-2-.7-2.87-1.19s-.66-2.39-2-2.38a23.48 23.48 0 0 1-1.6 3.39c-3.22.9-6.26-.9-9.42-1.17-.8 0-1.58.23-2.38.29-1.18.15-2.33-.29-3.5-.24-1.36.3-2.52 1.25-3.94 1.24-1.75 0-3.47.49-5.22.42-2.52.08-5-.07-7.55.11-.54-.49-.94-1.09-1.47-1.58-.67.33-1.12 1.12-1.92 1.16a24.9 24.9 0 0 1-4.93-1.09c.2-1.18 1.26-2.32.76-3.53-1-.53-2.2-1.22-3.38-.77a19.27 19.27 0 0 1-4.23.52c.44.62.89 1.23 1.39 1.8-3.18 0-6.11-1.8-9.3-1.72-.76.78-1.24 1.79-2 2.59-1.52.07-3-.33-4.54-.07s-2.77.35-4.15.46c-1.13.08-2 .86-3.08 1.22a27.28 27.28 0 0 0-4.3-.7c-1.61 0-3.16-.6-4.77-.6a14.06 14.06 0 0 0-3.18.68c-.56-.72-.75-1.81-1.69-2.13-2.18-.81-4.44-2-6.83-1.42-2 .49-4.14 1.05-6.23.62-.92-1-1.48-2.44-2.92-2.78-1.27-.17-2.84-.35-3.81.68C331.36 20 331 22 330 23.54a7.54 7.54 0 0 1-2.51.29h-11.3a14.46 14.46 0 0 1-3-.19 3.94 3.94 0 0 1-1.14-1.46 22.17 22.17 0 0 1 .85-2.6c-1.21.13-2.39.44-3.6.56a3.28 3.28 0 0 0-2.1.8 14.7 14.7 0 0 1-4.6 3.05c-.4-.54-.78-1.09-1.19-1.62a14.4 14.4 0 0 1-.89 1.58c-.72-.07-1.41-.27-2.12-.33-.95.24-1.72.93-2.65 1.25-2.69.59-5.35-.26-8-.46-.94-.11-1.59-.92-2.48-1.14s-2.07-.06-3.09-.22c-.88-1.06-.76-2.57-1.28-3.8a1.57 1.57 0 0 0-2.13-.78c-1.39.39-2.28 1.59-3.27 2.54-.94-.09-1.8-.56-2.73-.71-.75.56-1.41 1.23-2.13 1.82-.48-.2-.92-.47-1.4-.64-1.39.43-2.51 1.59-4 1.68a7.26 7.26 0 0 1-2.58-.13c-.66-.43-1.28-.9-2-1.27-.68 0-1.3.33-2 .4a13.17 13.17 0 0 1-2.13-.43c-.4.46-.79.95-1.23 1.37a4.68 4.68 0 0 1-1-.24c.43-.88.89-1.75 1.35-2.62-1.13-.08-2.26 0-3.38-.13s-1.86-1.23-3-1.21a4.67 4.67 0 0 0-1.9.18 10.51 10.51 0 0 1-2.23 1.65 8.07 8.07 0 0 0-2.61 1.19c-1.07 1-1.9 2.17-3 3.07-1.08-.18-1.93-1-3-1.37a6.83 6.83 0 0 0-1.8.2c.33-1.07.5-2.18.81-3.27-1.27.24-1.65 1.6-2.38 2.47a24.64 24.64 0 0 1-4.35.14c-1.38 0-2.48-1.14-3.83-1.19-.92.56-1.46 1.58-2.39 2.09-1.6.29-3-.66-4.44-1.26-2.36-1.05-4.92-2.22-7.56-1.7-1 .14-1.35 1.46-2.33 1.59a27 27 0 0 1-3.87-1.33c-2.09-1-4.47-.4-6.66-.9-1.65-.4-3 1.08-4.64.89a8.2 8.2 0 0 0-1.85-.19c-.72.4-1.29 1-2 1.43a22.43 22.43 0 0 1-5.77-1.45c-2-.91-4.23-.16-6.32-.1-1.35 0-2.58-.61-3.9-.79-.9 1-1.43 2.7-3 2.86-1.29-.43-2.49-1.3-3.91-1.15-2.21 0-3.48 2.2-5.47 2.79-1.2.34-2.41.63-3.63.89-.89.27-1.74-.52-2.63-.32-.83.52-1.54 1.22-2.36 1.75-1.14-.2-2.18-.78-3.33-.87a32.67 32.67 0 0 0-4.52 0c-2.89.23-5.19-2.2-8.07-2.1-2.43-.29-4.71.83-7.12.8-1.6-.22-3.09-1-4.71-1.11-1.2.22-2.21 1-3.41 1.2a16.52 16.52 0 0 1-7-.68c-1.93-.55-3.91 0-5.8.36a7.19 7.19 0 0 1-1.08-1.81c-1.17.16-2.28.6-3.45.77-2.65-.63-4-3.18-5.46-5.23a5.6 5.6 0 0 0-2.21 2.07c.25.86.71 1.63 1 2.48a9.78 9.78 0 0 1-1.92.1c-.2-.81-.3-1.64-.47-2.45h-.86a20 20 0 0 1 0 4 23.86 23.86 0 0 1-3.72-.64c-.17-1.25-.09-2.52-.19-3.77l-.91.11c-1.18 1.6-1.8 3.76-3.68 4.74-2.26-.4-4.42-1.47-6.78-1.33-.85.29-1.56 1-2.56 1.29a10.93 10.93 0 0 1-3 0c-1.12-.33-2-1.25-3-1.65-.76.14-1.46.54-2.22.66-.74-.12-1.45-.38-2.18-.51-1 .13-1.86.53-2.81.68a14.44 14.44 0 0 0-1.54-1.29c-.65 0-1.28.2-1.92.23-.82-.52-1.53-1.19-2.35-1.7-.71.8-1.05 1.85-1.78 2.64a1.35 1.35 0 0 1-1.09 0c-.25-.6-.43-1.23-.68-1.84-1.78.51-3.44 1.47-5.29 1.7A18.18 18.18 0 0 1 46 22.55a36.62 36.62 0 0 0-3.54 1.16c-.13-.66-.2-1.34-.35-2-1.75.35-2.17 2.46-3.71 3.15a12 12 0 0 1-6.59-.58c-2.18-.54-4.47 0-6.69-.19a18.91 18.91 0 0 1-3.41-.76c-1.19.5-2.13 1.62-3.48 1.68-1.61.08-3.23.07-4.83 0s-3.11-.89-4.74-.91c-1.09 0-2.1.66-3.19.66A15 15 0 0 0 0 24.1zm433.67 14.14l.07.38-.42.07-.16.41H432v2.2c.79-.09 2.2.29 2.26-.91l1.51.06.22.39h.37l.1.4c.72.47.56-.53 1.13-.41l.21-.4h1.24c0 .29-.06.88-.07 1.17h-.46c0 .26-.06.79-.08 1.06.46-.36.66-1.06 1.39-.56l.07-.48h.87v-.33l.38-.07.06-.44.3.08c0-.58 0-1.16.08-1.74-1.7 0-3.4 0-5.1-.07l-.06-.37-.75-.12-.07-.37zM291.81 15v.43l-.83.05v.39h-.82l-.11.4h-.44v.39H289c0 .35 0 1.06.06 1.42l2.71-.11v.36l.35.07.06.5h1.65c-.3-.89.91-.32 1.35-.5v.76l.35-.13c-.14.64-.36 1.27-.53 1.91l1.6.17-.07.24.36.11.17.43c.95 0 1.9.07 2.86.09v-1.95h.31v-.25h1.89l-.07.29.45.07c.05 1 1.47.21 2.09.5v-.46l1-.09.05-1.21-.85.07c-.05.53-1.07.09-1.47.25l.14-.2-.69-1c-.7 0-1.4-.05-2.1-.1v-.25l-.33-.13-.13-.45-2.54-.09v-.34l-.83-.06.08-.36h-.47l-.05-.22-.38-.08-.05-.43h-.34l-.06-.5c-1.26-.07-2.51-.06-3.76.01zm327.39.89c0 1-.06 2-.07 3h.49v.79l.39.13.07.52.78-.1v-.35l2.14-.08c0-.3.1-.91.13-1.21-.54-.21-.72-1.06-1.29-1-.1-.73-.68-1.19-1.08-1.75zm-3.93 1.26c.09.62-.3 1.24.19 1.77h1.44l.68-1.14c-.65-.19-1-1.81-1.65-.66zm-489 .12v.34l-.94.08-.17 1.22h.51c.1.65.68.88.54 1.6l.4.13.11.34 1 .14c.32-.53 1.06-.66 1.06-1.39l.31-.09v-1.06c-.93-.31-1.46-2.09-2.8-1.34zm458-.07c-.43.37-.62 1.09-1.24 1.15s-.7.77-1.42.69v.29h-2.62l-.1.5-.38.09.09.27h-1.52l.09 1.19.77.33c-.11.7 1.06.12 1.49.3.45-1.47 2.15-.71 3.28-.91l.11-.43.35-.08v-.38c.59.21 2.09-.53 1.92.51h1.12l.11-.69-.47-.94c-.77-.18-.3-1.22-.52-1.77zm-109.8 1.17l-.33.4a11.65 11.65 0 0 0 3.48.56 3.06 3.06 0 0 0 1.51 1.85c.58-.53 1.28-.77 1.2-1.73-.76-.68-1.73-.44-2.68-.59L477 18c-.77.22-2.06-.43-2.53.37zm113.78 0c-.5.51-1.27.78-1.24 1.69a3 3 0 0 0 1.2.73c.39.81 2.09.19 1.78-.57l1-.09v-1.52l-.8-.22L590 18h-1.49zm-568 .6l-.17 1.15c.79.7 1.81.48 2.84.49-.23.7.94.37 1.1.91h1.8c0-.46.08-.91.12-1.36-1.18 0-2.77 0-3.32-1.21q-1.17.05-2.35-.01zm606.3.25c-.5.61.53 1.45 1 .75s-.55-1.48-.98-.78zm-90.39 1.87h-.36c0 .14-.07.42-.09.56l.36-.07c.3.89 1.68 0 2.13.87l.47-.39c.7.11.59-.49.62-1q-1.55-.06-3.11-.01zM159.5 23.16c-.51.62.59 1.38 1 .73s-.56-1.37-1-.73z"/>
</svg>
