<svg xmlns="http://www.w3.org/2000/svg" viewBox="0 0 2155.06 19" width="2155.06" height="19">
    <path fill="#fff" d="M1616.29 0H0v16.9a10.54 10.54 0 0 1 3.85.46c.76 0 1.47-.44 2.24-.46 1.15 0 2.18.6 3.33.64s2.26.06 3.39 0c.95 0 1.61-.82 2.44-1.18a13.27 13.27 0 0 0 2.4.54c1.56.12 3.16-.25 4.69.13a8.44 8.44 0 0 0 4.62.41c1.08-.48 1.37-2 2.6-2.21.1.46.16.94.24 1.4a25.68 25.68 0 0 1 2.48-.81 12.74 12.74 0 0 0 1.47.88 25.13 25.13 0 0 0 3.71-1.19c.17.43.3.87.48 1.29a1 1 0 0 0 .76 0c.51-.55.75-1.29 1.25-1.85.58.36 1.08.83 1.65 1.19.45 0 .89-.16 1.35-.16a10.12 10.12 0 0 1 1.08.91c.67-.11 1.3-.38 2-.48.52.09 1 .27 1.53.36.54-.08 1-.36 1.56-.46.76.28 1.35.93 2.13 1.16a7.67 7.67 0 0 0 2.1 0c.66-.19 1.19-.68 1.84-.91 1.65-.09 3.17.65 4.75.94 1.32-.69 1.75-2.2 2.58-3.32l.64-.08c.07.88 0 1.77.13 2.64a16.73 16.73 0 0 0 2.61.45 14 14 0 0 0 0-2.79h.6c.12.57.19 1.15.33 1.72a6.86 6.86 0 0 0 1.34-.07c-.2-.59-.52-1.14-.69-1.74A3.93 3.93 0 0 1 69 12.88c1 1.44 2 3.23 3.83 3.67.82-.12 1.6-.43 2.42-.54a5 5 0 0 0 .75 1.27 8.55 8.55 0 0 1 4.09-.28 11.59 11.59 0 0 0 4.93.48c.84-.15 1.55-.69 2.39-.84 1.13.09 2.18.62 3.3.78 1.69 0 3.29-.76 5-.56 2-.07 3.63 1.63 5.66 1.47a22.92 22.92 0 0 1 3.17 0c.81.06 1.54.48 2.34.61.58-.37 1.07-.87 1.66-1.23.62-.14 1.22.41 1.84.22.86-.18 1.71-.38 2.55-.62 1.4-.41 2.29-1.94 3.84-2a6.6 6.6 0 0 1 2.74.81c1.08-.11 1.45-1.3 2.08-2a16.84 16.84 0 0 0 2.73.55c1.47 0 3-.57 4.44.07a15.74 15.74 0 0 0 4 1c.5-.29.9-.72 1.4-1a5.75 5.75 0 0 1 1.3.13c1.14.13 2.1-.91 3.26-.62 1.54.35 3.21-.06 4.67.63a18.94 18.94 0 0 0 2.72.93c.69-.09.92-1 1.63-1.12 1.86-.37 3.65.45 5.31 1.19 1 .42 2 1.08 3.11.88.66-.36 1-1.07 1.68-1.47.95 0 1.72.83 2.68.83a17.28 17.28 0 0 0 3.05-.1c.52-.61.78-1.56 1.67-1.73-.22.76-.33 1.54-.57 2.29a4.79 4.79 0 0 1 1.26-.14 14.38 14.38 0 0 0 2.08 1c.79-.63 1.38-1.47 2.13-2.15a5.66 5.66 0 0 1 1.83-.84 7.37 7.37 0 0 0 1.57-1.15 3.28 3.28 0 0 1 1.33-.13c.81 0 1.33.75 2.11.85s1.58 0 2.37.09c-.33.61-.65 1.22-.95 1.83a3.28 3.28 0 0 0 .68.17c.31-.3.58-.63.86-1a9.24 9.24 0 0 0 1.5.3c.47 0 .9-.28 1.38-.28.48.26.92.59 1.38.89a5.1 5.1 0 0 0 1.81.09c1.05-.07 1.84-.88 2.81-1.18.34.12.65.31 1 .45.51-.41 1-.88 1.5-1.27.65.11 1.26.44 1.92.5a5.9 5.9 0 0 1 2.34-1.61 1.1 1.1 0 0 1 1.49.55c.36.86.28 1.92.9 2.66.72.11 1.45 0 2.17.15s1.08.73 1.74.8c1.87.14 3.74.73 5.63.32.65-.23 1.19-.7 1.86-.87.5 0 1 .18 1.49.23a10.09 10.09 0 0 0 .62-1.11c.28.37.55.76.83 1.13a10.31 10.31 0 0 0 3.23-2.14 2.3 2.3 0 0 1 1.47-.56c.85-.09 1.68-.31 2.53-.4a15.55 15.55 0 0 0-.59 1.83 2.76 2.76 0 0 0 .8 1 10.14 10.14 0 0 0 2.11.13h7.93a5.29 5.29 0 0 0 1.76-.2c.69-1.09.92-2.47 1.94-3.34a3 3 0 0 1 2.67-.48c1 .24 1.41 1.27 2.05 2a10.05 10.05 0 0 0 4.37-.43c1.68-.43 3.27.43 4.79 1 .66.23.8 1 1.19 1.5a9.86 9.86 0 0 1 2.23-.48c1.13 0 2.22.4 3.35.42a19.14 19.14 0 0 1 3 .49 8.86 8.86 0 0 1 2.16-.85c1-.08 1.95-.18 2.91-.33a25.3 25.3 0 0 1 3.19 0c.52-.56.86-1.27 1.39-1.82 2.24-.05 4.29 1.2 6.52 1.21-.35-.4-.66-.83-1-1.26a13.52 13.52 0 0 0 3-.36 3 3 0 0 1 2.37.54c.35.85-.39 1.65-.53 2.48a17.47 17.47 0 0 0 3.46.76c.56 0 .87-.59 1.34-.81.37.34.66.77 1 1.11 1.76-.12 3.53 0 5.29-.08 1.23.05 2.43-.28 3.66-.29 1 0 1.82-.66 2.77-.87.82 0 1.63.27 2.46.17.56 0 1.11-.17 1.67-.2 2.22.19 4.35 1.45 6.61.82a16.46 16.46 0 0 0 1.16-2.42c1 0 .69 1.32 1.43 1.67s1.35.54 2 .83c-.2-.47-.42-.94-.61-1.41a31.89 31.89 0 0 0 3.58.15c1.08 0 1.91-1 3-.85 1.46 0 2.62 1.06 4 1.47 1.41.11 2.81-.2 4.22-.19a8.73 8.73 0 0 0 2-.3c1.43.27 2.73 1 4.17 1.27s2.78 0 4.17.21c.88.2 1.49-.83 2.37-.66a19.66 19.66 0 0 0 2.64.19 4.39 4.39 0 0 0 0-1.06c-.54-.83-1.78-.84-2.22-1.76a5.73 5.73 0 0 1 3.72-.95c.6.21 1 .79 1.6 1s1.08.2 1.62.35l.46 1c.73-.35 1.25-1.08 2.08-1.22a38.27 38.27 0 0 1 5 1.38 3.08 3.08 0 0 0 2.09-.27 23.94 23.94 0 0 1 5.11-1.08c1.33-.17 2.61-.74 4-.65s2.16 1.13 3.38 1.32A5 5 0 0 0 368 15a6.89 6.89 0 0 1 4-.12c1.4.53 2.59 1.55 4.07 1.91a6.25 6.25 0 0 0 2.45-.12c1.19-.7 2-1.93 3.34-2.43a7.87 7.87 0 0 1 2.15-.36c.68.05 1.15.65 1.8.81.6-.08 1.14-.4 1.75-.47a3.9 3.9 0 0 1 1 .59c.18.44.14 1 .45 1.39a12.47 12.47 0 0 0 7.57 1.18 11.5 11.5 0 0 1 3.2-.59c.78-.06 1.53-.55 2.33-.32a9.1 9.1 0 0 0 3.72.44 8.91 8.91 0 0 1 2.34-.73c1.85 0 3.71.08 5.56 0s3.34.87 5 1.23 3.56 1.1 5.43.95c1.1 0 2-.93 3.05-1a11.41 11.41 0 0 0 1.58-.06c1.08-.52 1.57-1.71 2.42-2.49 1.11-.14 2.23-.19 3.34-.34.58-.09 1.06.33 1.55.59a5.68 5.68 0 0 0 3.45 1.1c1-.81 1.86-1.89 3.18-2.14a14.26 14.26 0 0 0 1.41 1.98 2.83 2.83 0 0 0 2.13-.28 17 17 0 0 1 3.27-1.39c1.5-.5 3.07 0 4.54.4a18.22 18.22 0 0 1 3.69 1.09c1.24.56 2.65.41 3.93.85a7.45 7.45 0 0 0 2.79.27 10.52 10.52 0 0 0-.16-1.31A10.51 10.51 0 0 0 469 16c.64 0 1.22-.36 1.86-.46a15.68 15.68 0 0 1 1.58 1.05c.4-.4.66-1 1.15-1.26.62.08 1.14.51 1.76.65a9.1 9.1 0 0 0 1.29 0c.65.2 1.19.65 1.85.83.84.21 1.69.44 2.54.59.5-.33.9-.79 1.41-1.12 1-.13 2 .54 3 .6 1.33.1 2.67-.06 4 0 .83.06 1.6.44 2.43.58 1.7.22 3.44-.2 5.13.18a7.78 7.78 0 0 0 3.25.41c2-.75 3-2.8 4.72-4a4.75 4.75 0 0 0 1.29.3c.66-.06 1.32-.41 2-.18a18 18 0 0 1 3.71 1.26 16.18 16.18 0 0 0 2.25 1.33 12.58 12.58 0 0 0 3 .06c1-.06 1.79-.82 2.73-1.14 1.53.2 2.86 1.32 4.46 1.15 1.12-.1 1.94-.91 2.91-1.38a10.73 10.73 0 0 1 1.32.42 9.3 9.3 0 0 0 4.11.22c2.12-.14 3.91.63 6.08.74a10.54 10.54 0 0 1 3.85.46c.76 0 1.47-.44 2.24-.46 1.15 0 2.18.6 3.33.64s2.26.06 3.39 0c.95 0 1.61-.82 2.44-1.18a13.27 13.27 0 0 0 2.4.54c1.56.12 3.16-.25 4.69.13a8.44 8.44 0 0 0 4.62.41c1.08-.48 1.37-2 2.6-2.21.1.46.16.94.24 1.4a25.68 25.68 0 0 1 2.48-.81 12.74 12.74 0 0 0 1.47.88 25.13 25.13 0 0 0 3.71-1.19c.17.43.3.87.48 1.29a1 1 0 0 0 .76 0c.51-.55.75-1.29 1.25-1.85.58.36 1.08.83 1.65 1.19.45 0 .89-.16 1.35-.16a10.12 10.12 0 0 1 1.08.91c.67-.11 1.3-.38 2-.48.52.09 1 .27 1.53.36.54-.08 1-.36 1.56-.46.76.28 1.35.93 2.13 1.16a7.67 7.67 0 0 0 2.1 0c.66-.19 1.19-.68 1.84-.91 1.65-.09 3.17.65 4.75.94 1.32-.69 1.75-2.2 2.58-3.32l.64-.08c.07.88 0 1.77.13 2.64a16.73 16.73 0 0 0 2.61.45 14 14 0 0 0 0-2.79h.6c.12.57.19 1.15.33 1.72a6.86 6.86 0 0 0 1.34-.07c-.2-.59-.52-1.14-.69-1.74a3.93 3.93 0 0 1 1.55-1.45c1 1.44 2 3.23 3.83 3.67.82-.12 1.6-.43 2.42-.54a5 5 0 0 0 .76 1.27 8.55 8.55 0 0 1 4.07-.25 11.59 11.59 0 0 0 4.93.48c.84-.15 1.55-.69 2.39-.84 1.13.09 2.18.62 3.3.78 1.69 0 3.29-.76 5-.56 2-.07 3.63 1.63 5.66 1.47a22.92 22.92 0 0 1 3.17 0c.81.06 1.54.48 2.34.61.58-.37 1.07-.87 1.66-1.23.62-.14 1.22.41 1.84.22.86-.18 1.71-.38 2.55-.62 1.4-.41 2.29-1.94 3.84-2a6.6 6.6 0 0 1 2.74.81c1.08-.11 1.45-1.3 2.08-2a16.84 16.84 0 0 0 2.73.55c1.47 0 3-.57 4.44.07a15.74 15.74 0 0 0 4 1c.5-.29.9-.72 1.4-1a5.75 5.75 0 0 1 1.3.13c1.14.13 2.1-.91 3.26-.62 1.54.35 3.21-.06 4.67.63a18.94 18.94 0 0 0 2.72.93c.69-.09.92-1 1.63-1.12 1.86-.37 3.65.45 5.31 1.19 1 .42 2 1.08 3.11.88.66-.36 1-1.07 1.68-1.47.95 0 1.72.83 2.68.83a17.28 17.28 0 0 0 3.05-.1c.51-.61.78-1.56 1.67-1.73-.22.76-.33 1.54-.57 2.29a4.79 4.79 0 0 1 1.26-.14 14.38 14.38 0 0 0 2.08 1c.79-.63 1.38-1.47 2.13-2.15a5.66 5.66 0 0 1 1.83-.84 7.37 7.37 0 0 0 1.57-1.15 3.28 3.28 0 0 1 1.33-.13c.81 0 1.33.75 2.11.85s1.58 0 2.37.09c-.33.61-.65 1.22-.95 1.83a3.29 3.29 0 0 0 .68.17c.31-.3.58-.63.86-1a9.24 9.24 0 0 0 1.5.3c.47 0 .9-.28 1.38-.28.48.26.92.59 1.38.89a5.1 5.1 0 0 0 1.81.09c1.05-.07 1.84-.88 2.81-1.18.34.12.65.31 1 .45.51-.41 1-.88 1.5-1.27.65.11 1.26.44 1.92.5a5.9 5.9 0 0 1 2.25-1.55 1.1 1.1 0 0 1 1.49.55c.36.86.28 1.92.9 2.66.72.11 1.45 0 2.17.15s1.08.73 1.74.8c1.87.14 3.74.73 5.63.32.65-.23 1.19-.7 1.86-.87.5 0 1 .18 1.49.23a10.11 10.11 0 0 0 .62-1.11c.28.37.55.76.83 1.13a10.31 10.31 0 0 0 3.23-2.14 2.3 2.3 0 0 1 1.47-.56c.85-.09 1.68-.31 2.53-.4a15.55 15.55 0 0 0-.59 1.83 2.76 2.76 0 0 0 .8 1 10.14 10.14 0 0 0 2.11.13h7.93a5.29 5.29 0 0 0 1.76-.2c.69-1.09.92-2.47 1.94-3.34a3 3 0 0 1 2.67-.48c1 .24 1.41 1.27 2.05 2a10.05 10.05 0 0 0 4.37-.43c1.68-.43 3.27.43 4.79 1 .66.23.8 1 1.19 1.5a9.86 9.86 0 0 1 2.23-.48c1.13 0 2.22.4 3.35.42a19.14 19.14 0 0 1 3 .49 8.86 8.86 0 0 1 2.16-.85c1-.08 1.95-.18 2.91-.33a25.3 25.3 0 0 1 3.19 0c.52-.56.86-1.27 1.39-1.82 2.24-.05 4.29 1.2 6.52 1.21-.35-.4-.66-.83-1-1.26a13.52 13.52 0 0 0 3-.36 3 3 0 0 1 2.37.54c.35.85-.39 1.65-.53 2.48a17.47 17.47 0 0 0 3.46.76c.56 0 .87-.59 1.34-.81.37.34.66.77 1 1.11 1.76-.12 3.53 0 5.29-.08 1.23.05 2.43-.28 3.66-.29 1 0 1.82-.66 2.77-.87.82 0 1.63.27 2.46.17.56 0 1.11-.17 1.67-.2 2.22.19 4.35 1.45 6.61.82a16.46 16.46 0 0 0 1.17-2.42c1 0 .69 1.32 1.43 1.67s1.35.54 2 .83c-.2-.47-.42-.94-.61-1.41a31.89 31.89 0 0 0 3.58.15c1.08 0 1.91-1 3-.85 1.46 0 2.62 1.06 4 1.47 1.41.11 2.81-.2 4.22-.19a8.73 8.73 0 0 0 2-.3c1.43.27 2.73 1 4.17 1.27s2.78 0 4.17.21c.88.2 1.49-.83 2.37-.66a19.66 19.66 0 0 0 2.64.19 4.39 4.39 0 0 0 0-1.06c-.54-.83-1.78-.84-2.22-1.76a5.73 5.73 0 0 1 3.72-.95c.6.21 1 .79 1.6 1s1.08.2 1.62.35l.46 1c.73-.35 1.25-1.08 2.08-1.22a38.27 38.27 0 0 1 5 1.38 3.08 3.08 0 0 0 2.09-.27 23.94 23.94 0 0 1 5.08-1.12c1.33-.17 2.61-.74 4-.65s2.16 1.13 3.38 1.32a5 5 0 0 0 1.64-.4 6.89 6.89 0 0 1 4-.12c1.4.53 2.59 1.55 4.07 1.91a6.25 6.25 0 0 0 2.45-.12c1.19-.7 2-1.93 3.34-2.43a7.87 7.87 0 0 1 2.15-.36c.68.05 1.15.65 1.8.81.6-.08 1.14-.4 1.75-.47a3.9 3.9 0 0 1 1 .59c.18.44.14 1 .45 1.39a12.47 12.47 0 0 0 7.57 1.18 11.5 11.5 0 0 1 3.2-.59c.78-.06 1.53-.55 2.33-.32a9.1 9.1 0 0 0 3.72.44 8.9 8.9 0 0 1 2.34-.73c1.85 0 3.71.08 5.56 0s3.34.87 5 1.23 3.56 1.1 5.43.95c1.1 0 2-.93 3.05-1a11.41 11.41 0 0 0 1.58-.06c1.08-.52 1.57-1.71 2.42-2.49 1.11-.14 2.23-.19 3.34-.34.58-.09 1.06.33 1.54.59a5.68 5.68 0 0 0 3.45 1.1c1-.81 1.86-1.89 3.18-2.14A14.25 14.25 0 0 0 982.9 16a2.83 2.83 0 0 0 2.13-.28 17 17 0 0 1 3.27-1.39c1.5-.5 3.07 0 4.54.4a18.22 18.22 0 0 1 3.69 1.09c1.24.56 2.65.41 3.93.85a7.45 7.45 0 0 0 2.79.27 10.52 10.52 0 0 0-.16-1.31 10.51 10.51 0 0 0 4.64.44c.64 0 1.23-.36 1.86-.46a15.69 15.69 0 0 1 1.58 1.05c.4-.4.66-1 1.15-1.26.62.08 1.14.51 1.76.65a9.1 9.1 0 0 0 1.29 0c.65.2 1.19.65 1.85.83.84.21 1.69.44 2.54.59.5-.33.9-.79 1.41-1.12 1-.13 2 .54 3 .6 1.33.1 2.67-.06 4 0 .83.06 1.6.44 2.43.58 1.7.22 3.44-.2 5.13.18a7.78 7.78 0 0 0 3.25.41c2-.75 3-2.8 4.72-4a4.75 4.75 0 0 0 1.29.3c.66-.06 1.32-.41 2-.18a18 18 0 0 1 3.71 1.26 16.18 16.18 0 0 0 2.25 1.33 12.58 12.58 0 0 0 3 .06c1-.06 1.79-.82 2.73-1.14 1.53.2 2.86 1.32 4.46 1.15 1.12-.1 1.94-.91 2.91-1.38a10.73 10.73 0 0 1 1.32.42 9.3 9.3 0 0 0 4.11.22c2.12-.14 3.91.63 6.08.74a10.54 10.54 0 0 1 3.85.46c.76 0 1.47-.44 2.24-.46 1.15 0 2.18.6 3.33.64s2.26.06 3.39 0c.95 0 1.61-.82 2.44-1.18a13.27 13.27 0 0 0 2.4.54c1.56.12 3.16-.25 4.69.13a8.44 8.44 0 0 0 4.62.41c1.08-.48 1.37-2 2.6-2.21.1.46.16.94.24 1.4a25.69 25.69 0 0 1 2.48-.81 12.75 12.75 0 0 0 1.47.88 25.14 25.14 0 0 0 3.71-1.19c.17.43.3.87.48 1.29a1 1 0 0 0 .76 0c.51-.55.75-1.29 1.25-1.85.58.36 1.08.83 1.65 1.19.45 0 .89-.16 1.35-.16a10.13 10.13 0 0 1 1.08.91c.67-.11 1.3-.38 2-.48.52.09 1 .27 1.53.36.54-.08 1-.36 1.56-.46.76.28 1.35.93 2.13 1.16a7.67 7.67 0 0 0 2.1 0c.66-.19 1.19-.68 1.84-.91 1.65-.09 3.17.65 4.75.94 1.32-.69 1.75-2.2 2.58-3.32l.64-.08c.07.88 0 1.77.13 2.64a16.73 16.73 0 0 0 2.61.45 14 14 0 0 0 0-2.79h.6c.12.57.19 1.15.33 1.72a6.86 6.86 0 0 0 1.34-.07c-.2-.59-.52-1.14-.69-1.74a3.93 3.93 0 0 1 1.55-1.45c1 1.44 2 3.23 3.83 3.67.82-.12 1.6-.43 2.42-.54a5 5 0 0 0 .76 1.27 8.55 8.55 0 0 1 4.07-.25 11.59 11.59 0 0 0 4.93.48c.84-.15 1.55-.69 2.39-.84 1.13.09 2.18.62 3.3.78 1.69 0 3.29-.76 5-.56 2-.07 3.63 1.63 5.66 1.47a22.92 22.92 0 0 1 3.17 0c.81.06 1.54.48 2.34.61.58-.37 1.07-.87 1.66-1.23.62-.14 1.22.41 1.84.22.86-.18 1.71-.38 2.55-.62 1.4-.41 2.29-1.94 3.84-2a6.6 6.6 0 0 1 2.74.81c1.08-.11 1.45-1.3 2.08-2a16.84 16.84 0 0 0 2.73.55c1.47 0 3-.57 4.44.07a15.74 15.74 0 0 0 4 1c.5-.29.9-.72 1.4-1a5.75 5.75 0 0 1 1.3.13c1.14.13 2.1-.91 3.26-.62 1.54.35 3.21-.06 4.67.63a18.94 18.94 0 0 0 2.72.93c.69-.09.92-1 1.63-1.12 1.86-.37 3.65.45 5.31 1.19 1 .42 2 1.08 3.11.88.66-.36 1-1.07 1.68-1.47.95 0 1.72.83 2.68.83a17.28 17.28 0 0 0 3.05-.1c.52-.61.78-1.56 1.67-1.73-.22.76-.33 1.54-.57 2.29a4.79 4.79 0 0 1 1.26-.14 14.38 14.38 0 0 0 2.08 1c.79-.63 1.38-1.47 2.13-2.15a5.66 5.66 0 0 1 1.83-.84 7.37 7.37 0 0 0 1.57-1.15 3.28 3.28 0 0 1 1.33-.13c.81 0 1.33.75 2.11.85s1.58 0 2.37.09c-.33.61-.65 1.22-.95 1.83a3.29 3.29 0 0 0 .68.17c.31-.3.58-.63.86-1a9.24 9.24 0 0 0 1.5.3c.47 0 .9-.28 1.38-.28.48.26.92.59 1.38.89a5.1 5.1 0 0 0 1.81.09c1.05-.07 1.84-.88 2.81-1.18.34.12.65.31 1 .45.51-.41 1-.88 1.5-1.27.65.11 1.26.44 1.92.5a5.9 5.9 0 0 1 2.29-1.78 1.1 1.1 0 0 1 1.49.55c.36.86.28 1.92.9 2.66.72.11 1.45 0 2.17.15s1.08.73 1.74.8c1.87.14 3.74.73 5.63.32.65-.23 1.19-.7 1.86-.87.5 0 1 .18 1.49.23a10.11 10.11 0 0 0 .62-1.11c.28.37.55.76.83 1.13a10.31 10.31 0 0 0 3.23-2.14 2.3 2.3 0 0 1 1.47-.56c.85-.09 1.68-.31 2.53-.4a15.55 15.55 0 0 0-.59 1.83 2.76 2.76 0 0 0 .8 1 10.14 10.14 0 0 0 2.11.13h7.93a5.29 5.29 0 0 0 1.76-.2c.69-1.09.92-2.47 1.94-3.34a3 3 0 0 1 2.67-.48c1 .24 1.41 1.27 2.05 2a10.05 10.05 0 0 0 4.37-.43c1.68-.43 3.27.43 4.79 1 .66.23.8 1 1.19 1.5a9.86 9.86 0 0 1 2.23-.48c1.13 0 2.22.4 3.35.42a19.14 19.14 0 0 1 3 .49 8.86 8.86 0 0 1 2.16-.85c1-.08 1.95-.18 2.91-.33a25.3 25.3 0 0 1 3.19 0c.52-.56.86-1.27 1.39-1.82 2.24-.05 4.29 1.2 6.52 1.21-.35-.4-.66-.83-1-1.26a13.52 13.52 0 0 0 3-.36 3 3 0 0 1 2.37.54c.35.85-.39 1.65-.53 2.48a17.47 17.47 0 0 0 3.46.76c.56 0 .87-.59 1.34-.81.37.34.66.77 1 1.11 1.76-.12 3.53 0 5.29-.08 1.23.05 2.43-.28 3.66-.29 1 0 1.82-.66 2.77-.87.82 0 1.63.27 2.46.17.56 0 1.11-.17 1.67-.2 2.22.19 4.35 1.45 6.61.82a16.46 16.46 0 0 0 1.16-2.26c1 0 .69 1.32 1.43 1.67s1.35.54 2 .83c-.2-.47-.42-.94-.61-1.41a31.89 31.89 0 0 0 3.58.15c1.08 0 1.91-1 3-.85 1.46 0 2.62 1.06 4 1.47 1.41.11 2.81-.2 4.22-.19a8.73 8.73 0 0 0 2-.3c1.43.27 2.73 1 4.17 1.27s2.78 0 4.17.21c.88.2 1.49-.83 2.37-.66a19.66 19.66 0 0 0 2.64.19 4.39 4.39 0 0 0 0-1.06c-.54-.83-1.78-.84-2.22-1.76a5.73 5.73 0 0 1 3.72-.95c.6.21 1 .79 1.6 1s1.08.2 1.62.35l.46 1c.73-.35 1.25-1.08 2.08-1.22a38.27 38.27 0 0 1 5 1.38 3.08 3.08 0 0 0 2.09-.27 23.94 23.94 0 0 1 5.08-1.12c1.33-.17 2.61-.74 4-.65s2.16 1.13 3.38 1.32a5 5 0 0 0 1.64-.4 6.89 6.89 0 0 1 4-.12c1.4.53 2.59 1.55 4.07 1.91a6.25 6.25 0 0 0 2.45-.12c1.19-.7 2-1.93 3.34-2.43a7.87 7.87 0 0 1 2.15-.36c.68.05 1.15.65 1.8.81.6-.08 1.14-.4 1.75-.47a3.9 3.9 0 0 1 1 .59c.18.44.14 1 .45 1.39a12.47 12.47 0 0 0 7.57 1.18 11.5 11.5 0 0 1 3.2-.59c.78-.06 1.53-.55 2.33-.32a9.1 9.1 0 0 0 3.72.44 8.9 8.9 0 0 1 2.34-.73c1.85 0 3.71.08 5.56 0s3.34.87 5 1.23 3.56 1.1 5.43.95c1.1 0 2-.93 3.05-1a11.41 11.41 0 0 0 1.58-.06c1.08-.52 1.57-1.71 2.42-2.49 1.11-.14 2.23-.19 3.34-.34.58-.09 1.06.33 1.54.59a5.68 5.68 0 0 0 3.45 1.1c1-.81 1.86-1.89 3.18-2.14a14.25 14.25 0 0 0 1.37 1.87 2.83 2.83 0 0 0 2.13-.28 17 17 0 0 1 3.27-1.39c1.5-.5 3.07 0 4.54.4a18.22 18.22 0 0 1 3.69 1.09c1.24.56 2.65.41 3.93.85a7.45 7.45 0 0 0 2.79.27 10.52 10.52 0 0 0-.16-1.31 10.51 10.51 0 0 0 4.64.44c.64 0 1.23-.36 1.86-.46a15.69 15.69 0 0 1 1.58 1.05c.4-.4.66-1 1.15-1.26.62.08 1.14.51 1.76.65a9.1 9.1 0 0 0 1.29 0c.65.2 1.19.65 1.85.83.84.21 1.69.44 2.54.59.5-.33.9-.79 1.41-1.12 1-.13 2 .54 3 .6 1.33.1 2.67-.06 4 0 .83.06 1.6.44 2.43.58 1.7.22 3.44-.2 5.13.18a7.78 7.78 0 0 0 3.25.41c2-.75 3-2.8 4.72-4a4.75 4.75 0 0 0 1.29.3c.66-.06 1.32-.41 2-.18a18 18 0 0 1 3.71 1.26 16.18 16.18 0 0 0 2.25 1.33 12.58 12.58 0 0 0 3 .06c1-.06 1.79-.82 2.73-1.14 1.53.2 2.86 1.32 4.46 1.15 1.12-.1 1.94-.91 2.91-1.38a10.73 10.73 0 0 1 1.32.42 9.3 9.3 0 0 0 4.11.22c2.12-.14 3.91.63 6.08.74a10.54 10.54 0 0 1 3.85.46c.76 0 1.47-.44 2.24-.46 1.15 0 2.18.6 3.33.64s2.26.06 3.39 0c.95 0 1.61-.82 2.44-1.18a13.27 13.27 0 0 0 2.4.54c1.56.12 3.16-.25 4.69.13a8.44 8.44 0 0 0 4.62.41c1.08-.48 1.37-2 2.6-2.21.1.46.16.94.24 1.4a25.69 25.69 0 0 1 2.48-.81 12.75 12.75 0 0 0 1.47.88 25.14 25.14 0 0 0 3.71-1.19c.17.43.3.87.48 1.29a1 1 0 0 0 .76 0c.51-.55.75-1.29 1.25-1.85.58.36 1.08.83 1.65 1.19.45 0 .89-.16 1.35-.16a10.13 10.13 0 0 1 1.08.91c.67-.11 1.3-.38 2-.48.52.09 1 .27 1.53.36.54-.08 1-.36 1.56-.46.76.28 1.35.93 2.13 1.16a7.67 7.67 0 0 0 2.1 0c.66-.19 1.19-.68 1.84-.91 1.65-.09 3.17.65 4.75.94 1.32-.69 1.75-2.2 2.58-3.32l.64-.08c.07.88 0 1.77.13 2.64a16.73 16.73 0 0 0 2.61.45 14 14 0 0 0 0-2.79h.6c.12.57.19 1.15.33 1.72a6.86 6.86 0 0 0 1.34-.07c-.2-.59-.52-1.14-.69-1.74a3.93 3.93 0 0 1 1.55-1.45c1 1.44 2 3.23 3.83 3.67.82-.12 1.6-.43 2.42-.54a5 5 0 0 0 .76 1.27 8.55 8.55 0 0 1 4.07-.25 11.59 11.59 0 0 0 4.93.48c.84-.15 1.55-.69 2.39-.84 1.13.09 2.18.62 3.3.78 1.69 0 3.29-.76 5-.56 2-.07 3.63 1.63 5.66 1.47a22.92 22.92 0 0 1 3.17 0c.81.06 1.54.48 2.34.61.58-.37 1.07-.87 1.66-1.23.62-.14 1.22.41 1.84.22.86-.18 1.71-.38 2.55-.62 1.4-.41 2.29-1.94 3.84-2a6.6 6.6 0 0 1 2.74.81c1.08-.11 1.45-1.3 2.08-2a16.84 16.84 0 0 0 2.73.55c1.47 0 3-.57 4.44.07a15.74 15.74 0 0 0 4 1c.5-.29.9-.72 1.4-1a5.75 5.75 0 0 1 1.3.13c1.14.13 2.1-.91 3.26-.62 1.54.35 3.21-.06 4.67.63a18.94 18.94 0 0 0 2.72.93c.69-.09.92-1 1.63-1.12 1.86-.37 3.65.45 5.31 1.19 1 .42 2 1.08 3.11.88.66-.36 1-1.07 1.68-1.47.95 0 1.72.83 2.68.83a17.28 17.28 0 0 0 3.05-.1c.51-.61.78-1.56 1.67-1.73-.22.76-.33 1.54-.57 2.29a4.79 4.79 0 0 1 1.26-.14 14.38 14.38 0 0 0 2.08 1c.79-.63 1.38-1.47 2.13-2.15a5.66 5.66 0 0 1 1.83-.84 7.37 7.37 0 0 0 1.57-1.15 3.28 3.28 0 0 1 1.33-.13c.81 0 1.33.75 2.11.85s1.58 0 2.37.09c-.33.61-.65 1.22-.95 1.83a3.29 3.29 0 0 0 .68.17c.31-.3.58-.63.86-1a9.24 9.24 0 0 0 1.5.3c.47 0 .9-.28 1.38-.28.48.26.92.59 1.38.89a5.1 5.1 0 0 0 1.81.09c1.05-.07 1.84-.88 2.81-1.18.34.12.65.31 1 .45.51-.41 1-.88 1.5-1.27.65.11 1.26.44 1.92.5a5.9 5.9 0 0 1 2.29-1.78 1.1 1.1 0 0 1 1.49.55c.36.86.28 1.92.9 2.66.72.11 1.45 0 2.17.15s1.08.73 1.74.8c1.87.14 3.74.73 5.63.32.65-.23 1.19-.7 1.86-.87.5 0 1 .18 1.49.23a10.11 10.11 0 0 0 .62-1.11c.28.37.55.76.83 1.13a10.31 10.31 0 0 0 3.23-2.14 2.3 2.3 0 0 1 1.47-.56c.85-.09 1.68-.31 2.53-.4a15.55 15.55 0 0 0-.59 1.83 2.76 2.76 0 0 0 .8 1 10.14 10.14 0 0 0 2.11.13h7.93a5.29 5.29 0 0 0 1.76-.2c.69-1.09.92-2.47 1.94-3.34a3 3 0 0 1 2.67-.48c1 .24 1.41 1.27 2.05 2a10.05 10.05 0 0 0 4.37-.43c1.68-.43 3.27.43 4.79 1 .66.23.8 1 1.19 1.5a9.86 9.86 0 0 1 2.23-.48c1.13 0 2.22.4 3.35.42a19.14 19.14 0 0 1 3 .49 8.86 8.86 0 0 1 2.16-.85c1-.08 1.95-.18 2.91-.33a25.3 25.3 0 0 1 3.19 0c.52-.56.86-1.27 1.39-1.82 2.24-.05 4.29 1.2 6.52 1.21-.35-.4-.66-.83-1-1.26a13.52 13.52 0 0 0 3-.36 3 3 0 0 1 2.37.54c.35.85-.39 1.65-.53 2.48a17.47 17.47 0 0 0 3.46.76c.56 0 .87-.59 1.34-.81.37.34.66.77 1 1.11 1.76-.12 3.53 0 5.29-.08 1.23.05 2.43-.28 3.66-.29 1 0 1.82-.66 2.77-.87.82 0 1.63.27 2.46.17.56 0 1.11-.17 1.67-.2 2.22.19 4.35 1.45 6.61.82a16.46 16.46 0 0 0 1.12-2.38c1 0 .69 1.32 1.43 1.67s1.35.54 2 .83c-.2-.47-.42-.94-.61-1.41a31.89 31.89 0 0 0 3.58.15c1.08 0 1.91-1 3-.85 1.46 0 2.62 1.06 4 1.47 1.41.11 2.81-.2 4.22-.19a8.73 8.73 0 0 0 2-.3c1.43.27 2.73 1 4.17 1.27s2.78 0 4.17.21c.88.2 1.49-.83 2.37-.66a19.66 19.66 0 0 0 2.64.19 4.39 4.39 0 0 0 0-1.06c-.54-.83-1.78-.84-2.22-1.76a5.73 5.73 0 0 1 3.72-.95c.6.21 1 .79 1.6 1s1.08.2 1.62.35l.46 1c.73-.35 1.25-1.08 2.08-1.22a38.27 38.27 0 0 1 5 1.38 3.08 3.08 0 0 0 2.09-.27 23.94 23.94 0 0 1 5.08-1.12c1.33-.17 2.61-.74 4-.65s2.16 1.13 3.38 1.32a5 5 0 0 0 1.64-.4 6.89 6.89 0 0 1 4-.12c1.4.53 2.59 1.55 4.07 1.91a6.25 6.25 0 0 0 2.45-.12c1.19-.7 2-1.93 3.34-2.43a7.87 7.87 0 0 1 2.15-.36c.68.05 1.15.65 1.8.81.6-.08 1.14-.4 1.75-.47a3.9 3.9 0 0 1 1 .59c.18.44.14 1 .45 1.39a12.47 12.47 0 0 0 7.57 1.18 11.5 11.5 0 0 1 3.2-.59c.78-.06 1.53-.55 2.33-.32a9.1 9.1 0 0 0 3.72.44 8.9 8.9 0 0 1 2.34-.73c1.85 0 3.71.08 5.56 0s3.34.87 5 1.23 3.56 1.1 5.43.95c1.1 0 2-.93 3.05-1a11.41 11.41 0 0 0 1.58-.06c1.08-.52 1.57-1.71 2.42-2.49 1.11-.14 2.23-.19 3.34-.34.58-.09 1.06.33 1.54.59a5.68 5.68 0 0 0 3.45 1.1c1-.81 1.86-1.89 3.18-2.14a14.25 14.25 0 0 0 1.37 1.87 2.83 2.83 0 0 0 2.13-.28 17 17 0 0 1 3.27-1.39c1.5-.5 3.07 0 4.54.4a18.22 18.22 0 0 1 3.69 1.09c1.24.56 2.65.41 3.93.85a7.45 7.45 0 0 0 2.79.27 10.52 10.52 0 0 0-.16-1.31 10.51 10.51 0 0 0 4.64.44c.64 0 1.22-.36 1.86-.46a15.69 15.69 0 0 1 1.58 1.05c.4-.4.66-1 1.15-1.26.62.08 1.14.51 1.76.65a9.1 9.1 0 0 0 1.29 0c.65.2 1.19.65 1.85.83.84.21 1.69.44 2.54.59.5-.33.9-.79 1.41-1.12 1-.13 2 .54 3 .6 1.33.1 2.67-.06 4 0 .83.06 1.6.44 2.43.58 1.7.22 3.44-.2 5.13.18a7.78 7.78 0 0 0 3.25.41c2-.75 3-2.8 4.72-4a4.75 4.75 0 0 0 1.29.3c.66-.06 1.32-.41 2-.18a18 18 0 0 1 3.71 1.26 16.18 16.18 0 0 0 2.25 1.33 12.58 12.58 0 0 0 3 .06c1-.06 1.79-.82 2.73-1.14 1.53.2 2.86 1.32 4.46 1.15 1.12-.1 1.94-.91 2.91-1.38a10.73 10.73 0 0 1 1.32.42 9.3 9.3 0 0 0 4.11.22c2.12-.14 3.91.63 6.08.74V0zM18.13 15.1h-1.26c-.12-.38-.94-.15-.77-.64-.72 0-1.44.14-2-.34l.12-.81h1.66c.39.87 1.5.87 2.33.85-.03.3-.05.62-.08.94zm72.47-1.33l-.22.06c0 .51-.52.6-.75 1l-.72-.1-.08-.24-.28-.09c.09-.51-.31-.67-.38-1.12h-.36l.12-.86.66-.05v-.24c.94-.53 1.31.72 2 .93.04.15.02.52.01.71zm22 3c-.3.45-1.08-.08-.72-.52s1.07.07.73.51zm101.78-2.61l-.67.06v.32c-.44-.21-1.43.31-1.47-.35l-.31-.05.05-.2h-1.32v.18h-.22v1.37c-.67 0-1.34 0-2-.06l-.12-.3L208 15l.05-.17-1.05-.11c.12-.45.27-.89.37-1.34l-.24.09v-.53c-.31.13-1.16-.27-.95.35H205v-.35h-.24v-.25l-1.9.08v-1h.35v-.27h.31l.08-.28h.57v-.27h.58v-.3h2.64V11h.24v.3l.27.06v.22h.33l-.06.26h.58v.24l1.78.06.09.32.23.09v.17c.49 0 1 .06 1.47.07l.48.69-.1.14c.28-.12 1 .2 1-.18h.6zm95.3-2.37l-.21-.05v.31h-.27v.23h-.61v.34c-.51-.35-.65.14-1 .39l.06-.74h.32c0-.2 0-.62.05-.82h-.87l-.15.28c-.4-.09-.29.62-.8.29l-.07-.28h-.26l-.15-.27h-1.06c0 .84-1 .58-1.59.64v-1.54h.83l.11-.29h.29v-.27h1.33v.26l.52.08v.26c1.19 0 2.38.08 3.58 0-.01.39-.03.76-.04 1.16zm26.43 3.08a2.15 2.15 0 0 1-1.06-1.3 8.17 8.17 0 0 1-2.44-.39l.23-.28c.33-.56 1.24-.11 1.81-.26l.43.61c.66.1 1.35-.07 1.88.41.04.66-.44.83-.84 1.2zm41.79.6l-.33.27c-.32-.62-1.29 0-1.5-.61h-.26c0-.1 0-.3.06-.39h2.45c0 .38.08.8-.41.72zm33.26-1h-.78c.12-.73-.93-.21-1.34-.36v.27l-.25.06-.08.3c-.79.14-2-.4-2.3.64-.3-.12-1.12.28-1-.21l-.54-.23-.06-.83h1.07l-.06-.19.27-.06.07-.35H408v-.2c.51.05.56-.35 1-.48s.57-.55.87-.81l.69.05c.16.39-.18 1.12.36 1.24l.33.66zm3.43-.38l-.71.06c.22.54-1 1-1.25.4a2.12 2.12 0 0 1-.84-.51c0-.64.52-.83.87-1.19l.18-.23h1l.16.23.56.16c.05.29.04.82.04 1.09zm18.16-.88h-1c-.34-.37-.07-.81-.13-1.24h.46c.48-.8.7.33 1.16.46zm4.31.67h-1.51v.24l-.55.07-.05-.37-.27-.09v-.55h-.34v-2.1h1.12c.28.39.69.72.76 1.23.4-.07.53.52.91.67.01.27-.04.7-.07.91zm3.17.09c-.31.49-1-.1-.68-.52s1.02.11.68.55zm116.66 1.13h-1.26c-.12-.38-.94-.15-.77-.64-.72 0-1.44.14-2-.34l.12-.81h1.66c.39.87 1.5.87 2.33.85-.02.3-.05.62-.08.94zm72.47-1.33l-.22.06c0 .51-.52.6-.75 1l-.72-.1-.08-.24-.28-.09c.09-.51-.31-.67-.38-1.12h-.36l.12-.86.66-.05v-.24c.94-.53 1.31.72 2 .93.04.15.03.52.02.71zm22 3c-.3.45-1.08-.08-.72-.52s1.07.07.74.51zm101.78-2.61l-.67.06v.32c-.44-.21-1.43.31-1.47-.35l-.31-.05.05-.2h-1.32v.18h-.22v1.37c-.67 0-1.34 0-2-.06l-.12-.3-.28-.13.05-.17-1.12-.12c.12-.45.27-.89.37-1.34l-.24.09v-.53c-.31.13-1.16-.27-.95.35h-1.16v-.35h-.24v-.25l-1.9.08v-1h.35v-.27h.31l.08-.28h.57v-.27h.58v-.3h2.64v.35h.24v.3l.27.06v.22h.33l-.06.26h.58v.24l1.78.06.09.32.23.09v.17c.49 0 1 .06 1.47.07l.48.69-.1.14c.28-.12 1 .2 1-.18h.6zm95.3-2.37l-.21-.05v.31h-.27v.23h-.61v.34c-.51-.35-.65.14-1 .39l.06-.74h.32c0-.2 0-.62.05-.82h-.87l-.15.28c-.4-.09-.29.62-.8.29l-.07-.28h-.26l-.15-.27h-1.06c0 .84-1 .58-1.59.64v-1.54h.83l.11-.29h.29v-.27h1.33v.26l.52.08v.26c1.19 0 2.38.08 3.58 0-.01.39-.03.76-.04 1.16zm26.43 3.08a2.15 2.15 0 0 1-1.06-1.3 8.17 8.17 0 0 1-2.44-.39l.23-.28c.33-.56 1.24-.11 1.81-.26l.43.61c.66.1 1.35-.07 1.88.41.06.66-.43.83-.84 1.2zm41.79.6l-.33.27c-.32-.62-1.29 0-1.5-.61h-.26c0-.1 0-.3.06-.39h2.45c.01.38.08.8-.41.72zm33.26-1h-.78c.12-.73-.93-.21-1.34-.36v.27l-.25.06-.08.3c-.79.14-2-.4-2.3.64-.3-.12-1.12.28-1-.21l-.54-.23-.06-.83h1.07l-.06-.19.27-.06.07-.35h1.84v-.2c.51.05.56-.35 1-.48s.57-.55.87-.81l.69.05c.16.39-.18 1.12.36 1.24l.32.69zm3.43-.38l-.71.06c.22.54-1 1-1.25.4a2.12 2.12 0 0 1-.84-.51c0-.64.52-.83.87-1.19l.18-.23h1l.16.23.56.16c.05.29.05.82.05 1.09zm18.16-.88h-1c-.34-.37-.07-.81-.13-1.24h.46c.48-.8.7.33 1.16.46zm4.31.67h-1.51v.24l-.55.07-.05-.37-.27-.09v-.55h-.34v-2.1h1.12c.28.39.69.72.76 1.23.4-.07.53.52.91.67.01.27-.04.7-.06.91zM979 14c-.31.49-1-.1-.68-.52s1.01.08.68.52zm116.66 1.12h-1.26c-.12-.38-.94-.15-.77-.64-.72 0-1.44.14-2-.34l.12-.81h1.66c.39.87 1.5.87 2.33.85-.03.28-.05.6-.08.92zm72.47-1.33l-.22.06c0 .51-.52.6-.75 1l-.72-.1-.08-.24-.28-.09c.09-.51-.31-.67-.38-1.12h-.36l.12-.86.66-.05v-.24c.94-.53 1.31.72 2 .93.04.13.02.5.01.69zm22 3c-.3.45-1.08-.08-.72-.52s1.07.05.73.49zm101.78-2.61l-.67.06v.32c-.44-.21-1.43.31-1.47-.35l-.31-.05.05-.2h-1.32v.18h-.22v1.37c-.67 0-1.34 0-2-.06l-.12-.3-.25-.08.05-.17-1.12-.12c.12-.45.27-.89.37-1.34l-.24.09V13c-.31.13-1.16-.27-.95.35h-1.16V13h-.24v-.25l-1.9.08v-1h.35v-.27h.31l.08-.28h.57v-.27h.58v-.3h2.64v.35h.24v.3l.27.06v.22h.33l-.06.26h.58v.24l1.78.06.09.32.23.09v.17c.49 0 1 .06 1.47.07l.48.69-.1.14c.28-.12 1 .2 1-.18h.6zm95.3-2.37l-.21-.05v.31h-.27v.23h-.61v.34c-.51-.35-.65.14-1 .39l.06-.74h.32c0-.2 0-.62.05-.82h-.87l-.15.28c-.4-.09-.29.62-.8.29l-.07-.28h-.26l-.15-.27h-1.06c0 .84-1 .58-1.59.64v-1.54h.83l.11-.29h.29v-.27h1.33v.26l.52.08v.26c1.19 0 2.38.08 3.58 0-.01.37-.03.74-.04 1.14zm26.43 3.08a2.15 2.15 0 0 1-1.06-1.3 8.17 8.17 0 0 1-2.44-.39l.23-.28c.33-.56 1.24-.11 1.81-.26l.43.61c.66.1 1.35-.07 1.88.41.05.64-.44.81-.84 1.18zm41.79.6l-.33.27c-.32-.62-1.29 0-1.5-.61h-.26c0-.1 0-.3.06-.39h2.45c0 .36.08.78-.41.7zm33.26-1h-.78c.12-.73-.93-.21-1.34-.36v.27l-.25.06-.08.3c-.79.14-2-.4-2.3.64-.3-.12-1.12.28-1-.21l-.54-.23-.06-.83h1.07l-.06-.19.27-.06.07-.35h1.84v-.2c.51.05.56-.35 1-.48s.57-.55.87-.81l.69.05c.16.39-.18 1.12.36 1.24l.33.66zm3.43-.38l-.71.06c.22.54-1 1-1.25.4a2.12 2.12 0 0 1-.84-.51c0-.64.52-.83.87-1.19l.18-.23h1l.16.23.56.16c.05.27.04.8.04 1.07zm18.16-.88h-1c-.34-.37-.07-.81-.13-1.24h.46c.48-.8.7.33 1.16.46zm4.31.67h-1.51v.24l-.55.07-.05-.37-.27-.09v-.55h-.34v-2.1h1.12c.28.39.69.72.76 1.23.4-.07.53.52.91.67.01.25-.04.68-.07.89zm3.17.09c-.31.49-1-.1-.68-.52s1.02.09.68.53zm116.66 1.12h-1.26c-.12-.38-.94-.15-.77-.64-.72 0-1.44.14-2-.34l.12-.81h1.66c.39.87 1.5.87 2.33.85-.02.29-.05.61-.08.93zm72.47-1.33l-.22.06c0 .51-.52.6-.75 1l-.72-.1-.08-.24-.28-.09c.09-.51-.31-.67-.38-1.12h-.36l.12-.86.66-.05v-.24c.94-.53 1.31.72 2 .93.04.14.03.51.02.7zm22 3c-.3.45-1.08-.08-.72-.52s1.07.06.74.5zm101.78-2.61l-.67.06v.32c-.44-.21-1.43.31-1.47-.35l-.31-.05.05-.2H1827v.18h-.22v1.37c-.67 0-1.34 0-2-.06l-.12-.3-.25-.08.05-.17-1.12-.12c.12-.45.27-.89.37-1.34l-.24.09v-.53c-.31.13-1.16-.27-.95.35h-1.16v-.35h-.24v-.25l-1.9.08v-1h.35v-.27h.31l.08-.28h.57V11h.58v-.3h2.64v.35h.24v.3l.27.06v.22h.33l-.06.26h.58v.24l1.78.06.09.32.23.09v.17c.49 0 1 .06 1.47.07l.48.69-.1.14c.28-.12 1 .2 1-.18h.6zm95.3-2.37l-.21-.05v.31h-.27v.23h-.61v.34c-.51-.35-.65.14-1 .39l.06-.74h.32c0-.2 0-.62.05-.82h-.87l-.15.28c-.4-.09-.29.62-.8.29l-.07-.28h-.26l-.15-.27h-1.06c0 .84-1 .58-1.59.64v-1.54h.83l.11-.29h.29v-.27h1.33v.26l.52.08v.26c1.19 0 2.38.08 3.58 0-.02.38-.02.75-.02 1.15zm26.43 3.08a2.15 2.15 0 0 1-1.06-1.3 8.17 8.17 0 0 1-2.44-.39l.23-.28c.33-.56 1.24-.11 1.81-.26l.43.61c.66.1 1.35-.07 1.88.41.06.65-.43.82-.84 1.19zm41.79.6l-.33.27c-.32-.62-1.29 0-1.5-.61h-.26c0-.1 0-.3.06-.39h2.45c.01.37.08.79-.41.71zm33.26-1h-.78c.12-.73-.93-.21-1.34-.36v.27l-.25.06-.08.3c-.79.14-2-.4-2.3.64-.3-.12-1.12.28-1-.21l-.54-.23-.06-.83h1.07l-.06-.19.27-.06.07-.35h1.84v-.2c.51.05.56-.35 1-.48s.57-.55.87-.81l.69.05c.16.39-.18 1.12.36 1.24l.33.66zm3.43-.38l-.71.06c.22.54-1 1-1.25.4a2.12 2.12 0 0 1-.84-.51c0-.64.52-.83.87-1.19l.18-.23h1l.16.23.56.16c.05.28.05.81.05 1.08zm18.16-.88h-1c-.34-.37-.07-.81-.13-1.24h.46c.48-.8.7.33 1.16.46zm4.31.67h-1.51v.24l-.55.07-.05-.37-.27-.09v-.55h-.34v-2.1h1.12c.28.39.69.72.76 1.23.4-.07.53.52.91.67.01.26-.04.69-.06.9zm3.17.09c-.31.49-1-.1-.68-.52s1.02.1.68.54z"/>
</svg>
