<svg xmlns="http://www.w3.org/2000/svg" viewBox="0 0 20 20" width="20" height="20">
  <path d="M14.86 6.88A5.53 5.53 0 1 1 4.47 9.54a5.6 5.6 0 0 1 .68-2.66H0V16c0 3.36 2.46 4 4.51 4H16a3.94 3.94 0 0 0 4-4.11v-9z"/>
  <path d="M10 4.92a4.62 4.62 0 1 0 4.62 4.61A4.63 4.63 0 0 0 10 4.92z"/>
  <path d="M16.46 0H3.54C1.83 0 0 1.73 0 4.5V6h5.78l.15-.17A5.73 5.73 0 0 1 10 4a5.75 5.75 0 0 1 4.17 1.89H20V4.5C20 1.73 18.17 0 16.46 0zm1.43 3.77a1 1 0 0 1-1 1H15.4a1 1 0 0 1-1-1V2.28a1 1 0 0 1 1-1h1.49a1 1 0 0 1 1 1z"/>
</svg>
