<svg xmlns="http://www.w3.org/2000/svg" viewBox="0 0 19 16.05" width="19" height="16.05">
  <path d="M15.78 3.22V0h-.8v3.22h-3.22v.8h3.22v3.22h.8V4.02H19v-.8h-3.22zM10.37 0h-5c-2.2 0-4.29 1.69-4.29 3.64a3.59 3.59 0 0 0 3.78 3.62h.46a2 2 0 0 0-.25.93 1.93 1.93 0 0 0 .68 1.37h-.86C2.12 9.55 0 11.31 0 13.13s2.33 2.92 5.09 2.92c3.15 0 4.89-1.79 4.89-3.58a3.47 3.47 0 0 0-1.74-3.23c-.45-.32-1.31-1.09-1.31-1.55s.15-.8 1-1.42a3.34 3.34 0 0 0 1.4-2.6A3 3 0 0 0 7.68.8h1.58zM8.64 12.16a2.22 2.22 0 0 1 .06.51c0 1.45-.94 2.59-3.62 2.59-1.91 0-3.29-1.21-3.29-2.66S3.5 10 5.41 10a4.15 4.15 0 0 1 1.24.2c1.03.73 1.78 1.14 1.99 1.96zm-3-5.41h-.06c-1.28 0-2.5-1.43-2.72-3.11S3.5.67 4.78.7s2.5 1.39 2.72 3.07-.61 2.98-1.86 2.98z"/>
</svg>
