<svg xmlns="http://www.w3.org/2000/svg" viewBox="0 0 20 20">
  <path d="M16.46 0H3.54C1.83 0 0 1.73 0 4.5v1.27h5.7a5.7 5.7 0 0 1 8.6 0H20v.1V4.5C20 1.73 18.17 0 16.46 0zm1.61 3.84A1.1 1.1 0 0 1 17 4.94h-1.67a1.1 1.1 0 0 1-1.1-1.1V2.21a1.1 1.1 0 0 1 1.1-1.1H17a1.1 1.1 0 0 1 1.1 1.1z"/>
  <path d="M13.67 7.07a4.44 4.44 0 0 0-1.38-1.3 4.32 4.32 0 0 0-4.59 0 4.44 4.44 0 0 0-1.38 1.3 4.42 4.42 0 1 0 7.34 0z"/>
  <path d="M20 6.88v.19h-4.84a5.72 5.72 0 1 1-10.32 0H0V16c0 3.36 2.46 4 4.51 4H16a3.94 3.94 0 0 0 4-4.11v-9z"/>
</svg>
